#!OML:ASF E:\Steps\Project 1\Capture day 1\Session 2\Subject.ASF
:FULLY-SPECIFIED
:DEGREES
178
root 7.80155 16.2256 30.6154 -155.197 0.40319 177.528
lowerback -25.471 -0.96989 -5.35143
upperback -0.135105 0.0393152 -0.451423
thorax 14.1844 -0.481264 2.54083
lowerneck -3.23351 -1.67409 -1.28856
upperneck 20.5533 -4.29342 2.84227
head 6.87749 -2.51233 0.768407
rclavicle 2.08724e-015 4.96962e-015
rhumerus -36.6947 -18.2556 -77.5423
rradius 34.039
rwrist 1.77869
rhand -7.54002 -56.4898
rfingers 7.12502
rthumb 18.3514 -85.6441
lclavicle 2.08724e-015 4.96962e-015
lhumerus -30.7062 9.06448 79.9519
lradius 22.7195
lwrist -4.89863
lhand -21.4798 -13.5409
lfingers 7.12502
lthumb 4.91103 16.3822
rfemur -20.2441 7.4281 21.5553
rtibia 7.78721
rfoot -21.8632 -5.22659
rtoes -33.1151
lfemur -45.4323 -7.52809 -19.1407
ltibia 50.6963
lfoot -10.8001 6.92964
ltoes -32.7768
179
root 7.80966 16.2249 30.5935 -155.226 0.643682 177.588
lowerback -25.3747 -1.28377 -5.15412
upperback -0.158378 0.237094 -0.438974
thorax 14.1115 -0.096054 2.58491
lowerneck -3.1626 -1.75409 -1.09848
upperneck 20.8131 -4.40335 2.4397
head 6.93942 -2.59722 0.596837
rclavicle 2.5842e-015 1.90833e-014
rhumerus -36.4754 -17.8827 -77.7888
rradius 34.0188
rwrist 1.83243
rhand -7.45257 -56.2426
rfingers 7.12502
rthumb 18.4355 -85.3891
lclavicle 2.5842e-015 1.90833e-014
lhumerus -30.9087 9.12768 79.9481
lradius 22.6471
lwrist -4.94681
lhand -21.5663 -13.8491
lfingers 7.12502
lthumb 4.82759 16.0759
rfemur -20.081 7.70201 21.6135
rtibia 7.66182
rfoot -21.8428 -5.34932
rtoes -33.475
lfemur -45.9111 -7.19777 -19.1358
ltibia 50.6504
lfoot -10.8176 6.92157
ltoes -32.2454
180
root 7.81895 16.2191 30.5773 -155.099 0.857468 177.59
lowerback -25.4293 -1.25634 -5.17772
upperback -0.0804242 0.276603 -0.431837
thorax 14.2313 -0.0886553 2.62076
lowerneck -3.31509 -1.76328 -1.20695
upperneck 20.8369 -4.38767 2.41096
head 6.97508 -2.59331 0.604413
rclavicle -3.70236e-015 2.48481e-015
rhumerus -35.912 -17.4143 -78.1506
rradius 34.0107
rwrist 1.82843
rhand -7.37846 -56.4171
rfingers 7.12502
rthumb 18.5068 -85.5568
lclavicle -3.70236e-015 2.48481e-015
lhumerus -30.8963 9.24264 79.9867
lradius 22.7053
lwrist -4.6835
lhand -21.4077 -14.2224
lfingers 7.12502
lthumb 4.98071 15.6991
rfemur -20.401 7.75429 21.6023
rtibia 8.07363
rfoot -22.0713 -5.33026
rtoes -32.9473
lfemur -46.6268 -6.88564 -19.1605
ltibia 50.5502
lfoot -10.6601 6.87591
ltoes -32.5498
181
root 7.82321 16.2191 30.5541 -155.073 1.03074 177.562
lowerback -25.385 -1.2126 -5.1879
upperback -0.0699349 0.333007 -0.439153
thorax 14.2141 -0.0645537 2.63841
lowerneck -3.09137 -1.65451 -1.28108
upperneck 20.5612 -4.19567 2.42797
head 6.84374 -2.50104 0.643171
rclavicle 3.72721e-016 -1.99779e-014
rhumerus -35.5932 -17.0135 -78.3895
rradius 34.0317
rwrist 1.76333
rhand -7.52646 -56.6232
rfingers 7.12502
rthumb 18.3644 -85.7763
lclavicle 3.72721e-016 -1.99779e-014
lhumerus -31.2013 9.16254 80.038
lradius 22.9059
lwrist -4.39307
lhand -21.3884 -14.5085
lfingers 7.12502
lthumb 4.99932 15.4125
rfemur -20.9869 7.47226 21.6077
rtibia 9.31322
rfoot -22.811 -5.04843
rtoes -32.7058
lfemur -47.1129 -6.87974 -19.0745
ltibia 50.0226
lfoot -10.7381 6.76348
ltoes -26.9905
182
root 7.82478 16.2223 30.5253 -155 1.05645 177.545
lowerback -25.3169 -1.19908 -5.16737
upperback -0.134067 0.340001 -0.418571
thorax 14.099 -0.0545645 2.65288
lowerneck -3.09228 -1.53175 -1.25578
upperneck 20.5304 -3.99384 2.32031
head 6.8269 -2.40757 0.618986
rclavicle -2.70844e-015 2.76311e-014
rhumerus -35.3813 -16.6814 -78.5796
rradius 34.0455
rwrist 1.76646
rhand -7.73712 -56.4583
rfingers 7.12502
rthumb 18.1618 -85.6304
lclavicle -2.70844e-015 2.76311e-014
lhumerus -31.5453 9.27932 80.0485
lradius 22.9802
lwrist -4.55393
lhand -21.5599 -14.2675
lfingers 7.12502
lthumb 4.83372 15.6573
rfemur -20.746 7.25302 21.6292
rtibia 8.90669
rfoot -22.7537 -4.84321
rtoes -32.9644
lfemur -47.5915 -6.84422 -19.1332
ltibia 49.5005
lfoot -10.7376 6.94033
ltoes -26.6622
183
root 7.83115 16.22 30.4932 -155.033 1.05348 177.356
lowerback -25.2629 -1.22828 -5.37723
upperback -0.0797231 0.366937 -0.479956
thorax 14.1315 -0.0578408 2.71181
lowerneck -3.38571 -1.53639 -1.11262
upperneck 20.8438 -4.02241 2.20499
head 6.97605 -2.42122 0.547672
rclavicle 2.70844e-015 -6.65929e-015
rhumerus -35.1021 -16.3844 -78.8744
rradius 34.1058
rwrist 1.81977
rhand -7.38777 -56.0331
rfingers 7.12502
rthumb 18.4978 -85.1736
lclavicle 2.70844e-015 -6.65929e-015
lhumerus -31.6562 9.40814 79.9718
lradius 22.9183
lwrist -4.78486
lhand -21.6986 -13.8908
lfingers 7.12502
lthumb 4.69983 16.0371
rfemur -20.1253 7.51449 21.4189
rtibia 8.09975
rfoot -22.5206 -5.19556
rtoes -33.3162
lfemur -47.9042 -6.89448 -19.383
ltibia 48.8966
lfoot -10.6207 7.18672
ltoes -31.8085
184
root 7.84132 16.216 30.4627 -155.137 1.11881 177.141
lowerback -25.1924 -1.26853 -5.67677
upperback 0.0283182 0.401587 -0.54512
thorax 14.2179 -0.0689339 2.81995
lowerneck -3.50544 -1.50535 -1.03581
upperneck 21.1137 -4.02136 2.1685
head 7.08294 -2.42541 0.517575
rclavicle -3.3048e-015 -1.09332e-015
rhumerus -34.7092 -16.1455 -79.1701
rradius 34.0978
rwrist 1.91221
rhand -7.02792 -55.844
rfingers 7.12502
rthumb 18.844 -84.9513
lclavicle -3.3048e-015 -1.09332e-015
lhumerus -31.7011 9.60471 79.8665
lradius 22.7803
lwrist -4.90238
lhand -21.6847 -14.069
lfingers 7.12502
lthumb 4.71326 15.8585
rfemur -20.3396 7.64451 21.1901
rtibia 9.01845
rfoot -23.0988 -5.42158
rtoes -33.2973
lfemur -48.1331 -6.98923 -19.5654
ltibia 48.2555
lfoot -10.5583 7.35526
ltoes -31.9198
